<?xml version="1.0" encoding="UTF-8"?>
<svg id="Vrstva_1" data-name="Vrstva 1" xmlns="http://www.w3.org/2000/svg" viewBox="0 0 69.86 78.75">
  <defs>
    <style>
      .cls-1 {
        fill: #fff;
      }

      .cls-2 {
        fill: #f28e2e;
      }
    </style>
  </defs>
  <path class="cls-2" d="M4.95,63.47c0-4.71,1.43-8.42,4.29-11.13,2.86-2.71,6.8-4.07,11.8-4.07s8.94,1.36,11.79,4.07c2.85,2.71,4.28,6.42,4.28,11.13s-1.43,8.48-4.29,11.2c-2.86,2.72-6.79,4.08-11.78,4.08s-8.92-1.36-11.79-4.08c-2.87-2.72-4.3-6.45-4.3-11.2"/>
  <line class="cls-2" x1="44.11" y1="38.59" x2="42.17" y2="27.46"/>
  <path class="cls-2" d="M47.47,37.67l-.19-1.11c-.15-.89-.31-1.77-.46-2.66-.19-1.07-.37-2.14-.56-3.22-.16-.93-.32-1.85-.48-2.78-.08-.45-.15-.9-.24-1.36,0,0,0-.01,0-.02-.11-.45-.32-.85-.62-1.18-.25-.38-.57-.68-.98-.9-.4-.25-.83-.39-1.29-.41-.46-.1-.92-.08-1.39.06-.28.12-.55.23-.83.35-.52.31-.94.72-1.25,1.25-.12.28-.23.55-.35.83-.17.62-.17,1.23,0,1.85.06.37.13.74.19,1.11.15.89.31,1.77.46,2.66.19,1.07.37,2.14.56,3.22.16.93.32,1.85.48,2.78.08.45.15.91.24,1.36,0,0,0,.01,0,.02.11.45.32.85.62,1.18.25.38.57.68.98.9.4.25.83.39,1.29.41.46.1.93.08,1.39-.06l.83-.35c.52-.31.94-.73,1.25-1.25.12-.28.23-.55.35-.83.17-.62.17-1.23,0-1.85"/>
  <line class="cls-2" x1="66.38" y1="36.76" x2="44.11" y2="38.59"/>
  <path class="cls-2" d="M66.38,33.28c-.74.06-1.48.12-2.22.18-1.77.14-3.54.29-5.31.44-2.14.18-4.28.35-6.42.53-1.86.15-3.72.3-5.58.46-.9.07-1.8.14-2.7.22-.01,0-.02,0-.04,0-.48-.02-.93.08-1.34.3-.43.14-.81.38-1.12.72-.6.6-1.06,1.59-1.02,2.46.04.9.34,1.83,1.02,2.46.65.59,1.55,1.09,2.46,1.02.74-.06,1.48-.12,2.23-.18,1.77-.15,3.54-.29,5.31-.44,2.14-.18,4.28-.35,6.42-.53,1.86-.15,3.72-.31,5.58-.46.9-.07,1.8-.14,2.7-.22.01,0,.03,0,.04,0,.48.02.93-.08,1.34-.3.43-.14.81-.38,1.12-.72.6-.6,1.06-1.59,1.02-2.46-.04-.9-.33-1.83-1.02-2.46-.65-.59-1.55-1.09-2.46-1.02"/>
  <line class="cls-2" x1="43.79" y1="14.92" x2="21.56" y2="26.2"/>
  <path class="cls-2" d="M42.03,11.91c-.74.37-1.48.75-2.22,1.12-1.77.9-3.54,1.8-5.32,2.7-2.13,1.08-4.27,2.17-6.41,3.25-1.85.94-3.71,1.88-5.56,2.82-.9.46-1.81.9-2.7,1.37l-.04.02c-.75.38-1.38,1.29-1.6,2.08-.23.83-.13,1.94.35,2.68.48.74,1.19,1.4,2.08,1.6.31.04.62.08.92.12.63,0,1.21-.16,1.76-.48.74-.37,1.48-.75,2.21-1.13,1.77-.9,3.54-1.8,5.32-2.7,2.14-1.08,4.27-2.17,6.41-3.25,1.85-.94,3.71-1.88,5.56-2.82.9-.46,1.81-.9,2.7-1.37.01,0,.02-.01.04-.02.75-.38,1.38-1.29,1.6-2.08.23-.83.13-1.94-.35-2.68-.48-.74-1.19-1.4-2.08-1.6-.31-.04-.62-.08-.93-.12-.63,0-1.21.16-1.76.48"/>
  <line class="cls-2" x1="21.56" y1="26.2" x2="27.78" y2="50.85"/>
  <path class="cls-2" d="M18.2,27.13c.21.82.41,1.64.62,2.46.49,1.96.99,3.91,1.48,5.87l1.8,7.13c.52,2.05,1.04,4.09,1.55,6.14.25,1,.49,2.01.76,3,0,.02,0,.03.01.04.21.84.86,1.65,1.6,2.08.74.44,1.84.62,2.68.35.84-.27,1.65-.79,2.08-1.6.44-.84.59-1.75.35-2.68-.21-.82-.41-1.64-.62-2.46-.49-1.96-.99-3.91-1.48-5.87-.6-2.38-1.2-4.75-1.8-7.13-.52-2.05-1.04-4.09-1.55-6.14-.25-1-.49-2.01-.76-3,0-.01,0-.03-.01-.04-.21-.84-.86-1.65-1.6-2.08-.75-.44-1.85-.62-2.68-.35-.84.27-1.65.79-2.08,1.6-.44.84-.59,1.75-.35,2.68"/>
  <path class="cls-2" d="M48.81,8.79c0-4.85,3.94-8.79,8.79-8.79s8.79,3.94,8.79,8.79-3.93,8.79-8.79,8.79-8.79-3.94-8.79-8.79"/>
  <path class="cls-2" d="M25.69,6.61c-.76.27-1.53.54-2.29.81-1.85.65-3.69,1.3-5.54,1.94l-6.68,2.34-5.77,2.03c-.94.33-1.87.65-2.81.99-.01,0-.03,0-.04.01-.86.3-1.61.79-2.08,1.6-.44.75-.62,1.85-.35,2.68.27.84.79,1.66,1.6,2.08.8.42,1.8.66,2.68.35.77-.27,1.53-.54,2.3-.81,1.85-.65,3.69-1.3,5.54-1.94,2.22-.78,4.45-1.56,6.67-2.34,1.92-.67,3.85-1.35,5.77-2.03.94-.33,1.88-.65,2.81-.99.01,0,.03,0,.04-.02.86-.3,1.61-.79,2.08-1.6.44-.75.62-1.85.35-2.68-.27-.84-.79-1.65-1.6-2.08-.8-.42-1.8-.66-2.68-.35"/>
  <path class="cls-1" d="M24.46,49.71c-.3.55-.6,1.1-.89,1.65l-2.15,3.97c-.86,1.59-1.72,3.19-2.59,4.78-.75,1.38-1.49,2.75-2.24,4.13-.36.67-.73,1.34-1.09,2.02,0,.01-.01.02-.02.03-.29.53-.39,1.16-.23,1.74.14.53.55,1.09,1.04,1.35.52.28,1.16.42,1.74.23.55-.18,1.07-.52,1.35-1.04.3-.55.6-1.1.9-1.65.72-1.32,1.43-2.64,2.15-3.97.86-1.59,1.72-3.19,2.59-4.78.74-1.38,1.49-2.75,2.24-4.13.36-.67.74-1.34,1.09-2.02,0-.01.01-.02.02-.03.28-.53.39-1.16.23-1.74-.14-.53-.55-1.09-1.04-1.35-.53-.28-1.16-.42-1.74-.23-.55.18-1.07.52-1.35,1.04"/>
</svg>