<?xml version="1.0" encoding="UTF-8"?>
<svg id="Vrstva_1" data-name="Vrstva 1" xmlns="http://www.w3.org/2000/svg" viewBox="0 0 201.98 51.72">
  <defs>
    <style>
      .cls-1 {
        fill: #fff;
      }

      .cls-2 {
        fill: #f28e2e;
      }
    </style>
  </defs>
  <path class="cls-2" d="M0,51.03l3.81-25.65h11.88c3.31,0,5.73.55,7.26,1.66,1.53,1.11,2.3,2.85,2.3,5.23,0,1.71-.41,3.18-1.24,4.4-.83,1.23-2.05,2.19-3.65,2.87,1.14.44,1.95,1.01,2.44,1.7.49.69.73,1.61.73,2.76,0,.24,0,.5-.03.77-.02.27-.04.56-.08.86l-.28,2.6c-.04.24-.06.42-.06.53,0,.11,0,.22,0,.32,0,.34.06.61.19.81.13.2.32.36.59.46v.66h-8.65c-.05-.16-.08-.34-.1-.53-.02-.19-.03-.4-.03-.62,0-.15,0-.34.03-.57.02-.23.04-.51.08-.84l.36-2.58c.02-.15.04-.31.05-.47.01-.16.02-.38.02-.66,0-1.09-.31-1.86-.93-2.3-.62-.44-1.71-.66-3.28-.66h-2.11l-1.39,9.23H0ZM10.08,36.33h3.9c1.23,0,2.14-.21,2.72-.64.58-.42.87-1.09.87-1.99,0-.78-.26-1.34-.77-1.69-.51-.35-1.35-.52-2.51-.52h-3.47l-.75,4.84Z"/>
  <path class="cls-2" d="M26.36,42.51c0-3.38,1.03-6.08,3.09-8.1,2.06-2.02,4.82-3.03,8.28-3.03,3.11,0,5.57.82,7.38,2.46,1.81,1.64,2.72,3.86,2.72,6.67,0,3.49-1,6.23-3,8.22-2,1.99-4.76,2.98-8.28,2.98-3.13,0-5.61-.83-7.44-2.48-1.83-1.65-2.74-3.89-2.74-6.71M37.56,36.51c-1.18,0-2.1.55-2.74,1.65-.64,1.1-.97,2.64-.97,4.64,0,1.24.23,2.16.69,2.77.46.6,1.17.9,2.13.9,1.11,0,2-.55,2.66-1.65.66-1.1.99-2.58.99-4.44,0-1.29-.23-2.25-.69-2.9-.46-.64-1.15-.97-2.08-.97"/>
  <path class="cls-2" d="M49.54,51.03l3.74-25.65h7.28l-1.39,8.46c.66-.79,1.41-1.38,2.25-1.77.84-.39,1.79-.58,2.85-.58,2.24,0,4.01.75,5.32,2.25,1.31,1.5,1.96,3.56,1.96,6.16,0,3.52-.83,6.35-2.49,8.51s-3.82,3.23-6.5,3.23c-1.44,0-2.68-.28-3.73-.84-1.05-.56-1.85-1.36-2.4-2.42l-.4,2.65h-6.49ZM61.74,37.01c-1.07,0-1.94.5-2.62,1.49-.68.99-1.02,2.28-1.02,3.86,0,1.12.25,1.99.75,2.62.5.63,1.19.95,2.07.95,1.04,0,1.91-.51,2.6-1.52.69-1.01,1.04-2.31,1.04-3.89,0-1.14-.24-2.01-.73-2.6-.49-.6-1.18-.9-2.09-.9"/>
  <path class="cls-2" d="M73.86,42.51c0-3.38,1.03-6.08,3.09-8.1,2.06-2.02,4.82-3.03,8.28-3.03,3.11,0,5.57.82,7.38,2.46,1.81,1.64,2.72,3.86,2.72,6.67,0,3.49-1,6.23-3,8.22-2,1.99-4.76,2.98-8.28,2.98-3.13,0-5.61-.83-7.44-2.48-1.83-1.65-2.74-3.89-2.74-6.71M85.06,36.51c-1.18,0-2.1.55-2.74,1.65-.65,1.1-.97,2.64-.97,4.64,0,1.24.23,2.16.69,2.77.46.6,1.17.9,2.13.9,1.11,0,2-.55,2.66-1.65.66-1.1.99-2.58.99-4.44,0-1.29-.23-2.25-.69-2.9-.46-.64-1.15-.97-2.08-.97"/>
  <polygon class="cls-2" points="97.37 51.03 101.28 25.38 109.31 25.38 108.02 33.77 116.26 25.38 125.89 25.38 114.93 35.91 122.58 51.03 113.73 51.03 109.14 41.4 106.42 44.01 105.39 51.03 97.37 51.03"/>
  <path class="cls-2" d="M123.6,42.51c0-3.38,1.03-6.08,3.09-8.1,2.06-2.02,4.82-3.03,8.28-3.03,3.11,0,5.57.82,7.38,2.46,1.81,1.64,2.72,3.86,2.72,6.67,0,3.49-1,6.23-3,8.22-2,1.99-4.76,2.98-8.28,2.98-3.13,0-5.61-.83-7.44-2.48-1.83-1.65-2.74-3.89-2.74-6.71M134.8,36.51c-1.18,0-2.1.55-2.74,1.65-.65,1.1-.97,2.64-.97,4.64,0,1.24.23,2.16.69,2.77.46.6,1.17.9,2.13.9,1.11,0,2-.55,2.66-1.65.66-1.1.99-2.58.99-4.44,0-1.29-.23-2.25-.69-2.9-.46-.64-1.15-.97-2.08-.97"/>
  <polygon class="cls-2" points="146.74 51.03 150.24 25.38 157.52 25.38 154.06 51.03 146.74 51.03"/>
  <path class="cls-2" d="M159.35,41.69c0-3.09.94-5.53,2.82-7.31,1.88-1.78,4.46-2.67,7.75-2.67s5.87.89,7.74,2.67c1.87,1.78,2.81,4.22,2.81,7.31s-.94,5.57-2.82,7.36c-1.88,1.79-4.46,2.68-7.73,2.68s-5.86-.89-7.74-2.68c-1.89-1.79-2.83-4.24-2.83-7.36"/>
  <line class="cls-2" x1="185.07" y1="25.35" x2="183.79" y2="18.03"/>
  <path class="cls-2" d="M187.27,24.74c-.04-.24-.08-.48-.13-.73-.1-.58-.2-1.16-.3-1.74-.12-.7-.24-1.41-.37-2.11-.11-.61-.21-1.22-.32-1.83-.05-.3-.1-.59-.15-.89,0,0,0,0,0-.01-.07-.3-.21-.56-.41-.78-.16-.25-.38-.44-.64-.59-.26-.17-.55-.26-.85-.27-.3-.07-.61-.05-.91.04-.18.08-.36.15-.55.23-.34.2-.62.48-.82.82-.08.18-.15.36-.23.55-.11.4-.11.81,0,1.21.04.24.08.48.13.73.1.58.2,1.16.3,1.74.12.7.24,1.41.37,2.11.11.61.21,1.22.32,1.83.05.3.1.6.15.89,0,0,0,0,0,.01.07.3.21.56.41.78.16.25.37.45.64.59.26.17.54.26.85.27.3.07.61.05.91-.04.18-.08.36-.15.55-.23.34-.2.62-.48.82-.82l.23-.55c.11-.4.11-.81,0-1.22"/>
  <line class="cls-2" x1="199.69" y1="24.14" x2="185.07" y2="25.35"/>
  <path class="cls-2" d="M199.69,21.86c-.49.04-.97.08-1.46.12-1.16.1-2.33.19-3.49.29-1.41.11-2.81.23-4.22.35-1.22.1-2.44.2-3.66.3-.59.05-1.18.09-1.77.15,0,0-.02,0-.03,0-.31-.01-.61.05-.88.2-.28.09-.53.25-.74.47-.4.4-.69,1.05-.67,1.62.03.59.22,1.2.67,1.62.43.39,1.02.72,1.62.67.49-.04.98-.08,1.46-.12,1.16-.1,2.33-.19,3.49-.29,1.41-.12,2.81-.23,4.22-.35,1.22-.1,2.44-.2,3.66-.3.59-.05,1.18-.09,1.77-.14,0,0,.02,0,.03,0,.31.01.61-.05.88-.2.28-.09.53-.25.74-.47.4-.4.69-1.05.67-1.62-.03-.59-.22-1.2-.67-1.62-.43-.39-1.02-.72-1.62-.67"/>
  <line class="cls-2" x1="184.85" y1="9.8" x2="170.25" y2="17.21"/>
  <path class="cls-2" d="M183.7,7.82l-1.46.74-3.49,1.77c-1.4.71-2.8,1.42-4.21,2.14-1.22.62-2.43,1.24-3.65,1.85-.59.3-1.19.59-1.77.9,0,0-.02,0-.02.01-.49.25-.91.85-1.05,1.37-.15.55-.08,1.28.23,1.76.32.49.78.92,1.37,1.05.2.03.4.06.61.08.41,0,.8-.11,1.15-.31.49-.25.97-.49,1.45-.74l3.49-1.77,4.21-2.14c1.22-.62,2.43-1.24,3.65-1.85.59-.3,1.19-.59,1.77-.9,0,0,.02,0,.02-.01.49-.25.91-.85,1.05-1.37.15-.55.08-1.28-.23-1.76-.32-.49-.78-.92-1.37-1.05-.2-.03-.4-.05-.61-.08-.41,0-.8.11-1.15.31"/>
  <line class="cls-2" x1="170.25" y1="17.21" x2="174.34" y2="33.4"/>
  <path class="cls-2" d="M168.05,17.82c.14.54.27,1.08.41,1.61.32,1.28.65,2.57.97,3.85.4,1.56.79,3.12,1.18,4.68.34,1.35.68,2.69,1.02,4.03.17.66.32,1.32.5,1.97,0,0,0,.02,0,.03.14.55.57,1.08,1.05,1.37.49.29,1.21.41,1.76.23.55-.18,1.09-.52,1.36-1.05.29-.55.39-1.15.23-1.76-.14-.54-.27-1.07-.41-1.61-.32-1.29-.65-2.57-.97-3.85-.39-1.56-.79-3.12-1.18-4.68-.34-1.34-.68-2.69-1.02-4.03-.17-.66-.32-1.32-.5-1.97,0,0,0-.02,0-.03-.14-.55-.56-1.08-1.05-1.37-.49-.29-1.21-.41-1.76-.23-.55.18-1.09.52-1.37,1.05-.29.55-.39,1.15-.23,1.76"/>
  <path class="cls-2" d="M188.15,5.77c0-3.19,2.58-5.77,5.77-5.77s5.77,2.58,5.77,5.77-2.58,5.77-5.77,5.77-5.77-2.59-5.77-5.77"/>
  <path class="cls-2" d="M172.97,4.34l-1.51.53-3.64,1.28c-1.46.51-2.92,1.03-4.38,1.54-1.26.44-2.53.89-3.79,1.33-.61.22-1.23.43-1.84.65,0,0-.02,0-.03,0-.57.2-1.05.52-1.37,1.05-.29.49-.41,1.21-.23,1.76.18.55.52,1.09,1.05,1.37.52.28,1.18.43,1.76.23.5-.18,1.01-.35,1.51-.53,1.21-.43,2.42-.85,3.64-1.28,1.46-.51,2.92-1.03,4.38-1.54,1.26-.44,2.53-.89,3.79-1.33.62-.22,1.23-.43,1.85-.65,0,0,.02,0,.03,0,.57-.2,1.05-.52,1.37-1.05.29-.49.41-1.21.23-1.76-.18-.55-.52-1.09-1.05-1.37-.52-.28-1.18-.43-1.76-.23"/>
  <path class="cls-1" d="M172.16,32.65l-.59,1.09c-.47.87-.94,1.74-1.41,2.61-.57,1.05-1.13,2.09-1.7,3.14-.49.9-.98,1.81-1.47,2.71-.24.44-.48.88-.72,1.33,0,0,0,.01,0,.02-.19.35-.26.76-.15,1.14.09.35.36.72.68.89.34.18.76.27,1.14.15.36-.12.7-.34.89-.68l.59-1.09c.47-.87.94-1.74,1.41-2.61.57-1.05,1.13-2.09,1.7-3.14.49-.9.98-1.81,1.47-2.71.24-.44.48-.88.72-1.33,0,0,0-.01,0-.02.19-.35.26-.76.15-1.14-.1-.35-.36-.72-.68-.89-.35-.18-.76-.27-1.15-.15-.36.12-.7.34-.89.68"/>
</svg>