<?xml version="1.0" encoding="UTF-8"?><svg id="Vrstva_1" xmlns="http://www.w3.org/2000/svg" viewBox="0 0 4691.48 824.45"><defs><style>.cls-1{stroke-width:5px;}.cls-1,.cls-2{fill:#f38d2b;stroke:#000;stroke-miterlimit:10;}.cls-2{stroke-width:4px;}</style></defs><path class="cls-1" d="M563.69,506.83c37.82-.68,78.32-4.54,115.75,2.2,11.49,2.07,28.28,6.04,24.71,21.02-4.08,17.13-23.22,26.53-24.49,45.05-1.07,15.53,10.09,29.3,17.05,42.31,8.84,16.55,15.67,33.39,18.56,52.02,4.89,31.48-1.99,62.78-19.42,89.43-34.58,52.87-100.31,76.16-159.77,53.07-52.45-20.37-86.72-69.26-87.08-125.87-.11-16.27,3.72-32.3,10.55-47.02,4.8-10.34,19.53-24.33,19.36-36.19-.15-10.06-13.78-14.59-21.28-18.16-17.02-8.11-35.93-14.12-50.18-26.98-22.74-20.53-26.15-51.52-31.14-79.95-6.43-36.65-9.76-77.02-25.73-111.02-14.45-30.76-38.02-56.14-60.81-80.9-7.28-7.91-62.85-67.74-73.74-50.19-4.57,7.36,11.84,34.1,15.28,41.81,7.51,16.8,13.95,34.11,14.48,52.74.94,32.55-19.82,53.15-45.96,68.98-29.12,17.63-61.58,29.46-95.32,34.22-14.65,2.07-32.15,5.16-45.85-2.17-15.46-8.28-8.8-22.2,2.09-31.18,25.46-21,62.52-25.15,90.92-41.75,13.69-8,25.71-17.38,27.65-34.12,1.84-15.9-4.98-33.18-11.17-47.53-13.95-32.32-32.34-59.12-31.62-95.95.07-3.77,2.85-15.14.31-18.21-5.18-6.26-13.93,1.98-17.22,6.1-10.06,12.57-10.4,31.76-22.22,43.24-23.23,22.55-56.11-25.89-66.64-42.22C13.61,143-.4,111.67,3.02,79.28,7.73,34.54,50.39,2.01,94.47,3.2c27.54.75,45.89,18.02,56.55,42.29,6.56,14.93,9.54,31.32,16.26,46.12,8.24,18.15,19.96,3.69,31.16-4.05,50.31-34.76,125.35-52.56,185.4-38.09,61.8,14.88,112.44,69.55,138.83,125.53,5.97,12.67,14.57,29.39,10.64,43.79-4.56,16.71-21.51,12.35-32.75,5.1-26.92-17.36-44.24-51.15-63.9-75.61-20.23-25.17-44.04-45.06-78.02-44.2-15.35.39-30.43,4.75-44.89,9.6-19.63,6.58-14.38,16.09-4.87,31.75,17.73,29.18,40.39,57.39,64.17,81.84,11.58,11.9,24.01,22.98,37.54,32.63,13.23,9.44,28.03,17.76,37.76,31.14,20.21,27.8,15.88,68.43,13.79,100.63-1.17,18-2.8,35.97-3.34,54-.43,14.36-2.38,31.68,7.35,43.66,20.55,25.31,69.26,16.82,97.52,17.49h.02ZM661.55,685.29c-2.06-35.51-25.39-66.51-60.76-74.33-71.61-15.84-124.37,69.48-77.53,126.22,44.86,54.33,142.5,20.71,138.29-51.89Z"/><path class="cls-2" d="M749.49,607.48c9.21-3.07,17.65-6.91,25.33-11.51s14.45-10.61,20.34-18.04c5.88-7.41,10.62-16.75,14.2-28.02,3.57-11.25,5.88-25.07,6.91-41.45.5-10.75,1.15-26.22,1.92-46.44.77-20.21,1.54-42.85,2.3-67.93.77-25.07,1.4-51.55,1.92-79.44.5-27.88.89-55.13,1.15-81.75.25-26.6.25-51.43,0-74.46-.26-23.03-.9-42.22-1.92-57.57-1.03-11.25-3.84-21.11-8.44-29.55s-10.36-15.35-17.27-20.72-14.33-9.46-22.26-12.28c-7.94-2.81-15.22-4.73-21.88-5.76V12.61c8.71,3.59,18.29,6.79,28.78,9.59,10.48,2.82,22.64,5.25,36.46,7.29,13.82,2.05,29.55,3.59,47.21,4.61,17.65,1.03,38,1.03,61.02,0,15.35-.5,32.49-.89,51.43-1.15,18.93-.25,37.86,1.03,56.8,3.84,18.93,2.82,37.23,7.42,54.88,13.82,17.65,6.4,32.88,16,45.67,28.78,12.79,12.8,22.38,29.3,28.78,49.51,6.39,20.22,8.06,45.42,4.99,75.61-4.1,35.31-11.9,64.36-23.41,87.12-11.51,22.78-25.33,40.68-41.45,53.73s-33.52,22.01-52.2,26.87c-18.69,4.87-36.97,7.04-54.88,6.52,24.56,13.82,44.77,32.24,60.64,55.27,15.86,23.03,28.9,50.66,39.15,82.9,6.14,18.42,11.9,35.31,17.27,50.66s12.15,28.52,20.34,39.53c8.18,11,18.16,19.19,29.94,24.56,11.77,5.37,27.12,7.29,46.05,5.76l-4.61,15.35c-8.71-1.54-20.72-2.18-36.08-1.92-15.35.25-31.47,1.02-48.36,2.3-16.89,1.27-33.14,2.94-48.74,4.99-15.62,2.04-28.02,4.61-37.23,7.68l-4.61-14.58c14.84-7.17,24.81-17.92,29.94-32.24,5.11-14.33,3.84-35.04-3.84-62.17-4.1-13.3-8.96-29.04-14.58-47.21-5.64-18.16-12.54-35.94-20.72-53.35-8.19-17.39-18.17-33.26-29.94-47.59-11.78-14.32-25.59-24.3-41.45-29.94-16.89-5.62-31.35-8.7-43.37-9.21-12.03-.5-21.88.26-29.55,2.3,0,23.03.25,46.19.77,69.47.5,23.29,2.81,45.04,6.91,65.24,4.09,20.22,10.48,38,19.19,53.35,8.7,15.35,21.49,26.36,38.38,33.01l-3.84,12.28c-8.71-1.03-20.99-1.92-36.84-2.69-15.87-.77-32.75-.52-50.66.77-17.92,1.27-35.69,3.57-53.35,6.91-17.65,3.32-32.36,8.83-44.13,16.5l-3.07-19.19ZM897.63,68.64c-5.64,22.52-10.36,46.19-14.2,71-3.84,24.83-6.91,49.39-9.21,73.69-2.3,24.31-3.72,47.47-4.22,69.47-.52,22.01-.26,40.95.77,56.8,32.24,5.64,61.41,8.06,87.5,7.29s48.61-6.52,67.55-17.27c18.93-10.75,34.16-27.25,45.67-49.51s18.81-52.06,21.88-89.42c2.04-22.51.12-41.45-5.76-56.8-5.89-15.35-14.2-27.88-24.95-37.61-10.75-9.71-23.16-17.01-37.23-21.88-14.08-4.86-28.78-8.06-44.13-9.59s-30.32-1.79-44.9-.77c-14.58,1.03-27.51,2.57-38.76,4.61Z"/><path class="cls-2" d="M1370.46,165.36c21.49-.5,42.72,3.84,63.71,13.05,20.98,9.21,39.91,23.03,56.8,41.45s30.57,40.81,41.06,67.16c10.48,26.36,15.74,56.42,15.74,90.19s-4.22,63.59-12.67,89.42c-8.44,25.85-19.71,47.72-33.77,65.63-14.08,17.92-30.2,31.6-48.36,41.07-18.17,9.47-37.23,14.97-57.18,16.5-22.52,1.54-44.52-2.17-66.01-11.13-21.49-8.95-40.81-22.51-57.95-40.68-17.15-18.16-31.09-40.68-41.83-67.55s-16.38-57.69-16.89-92.49c-1.03-35.81,3.45-66.9,13.43-93.26,9.98-26.35,22.64-48.23,38-65.63,15.35-17.39,32.49-30.44,51.43-39.15,18.93-8.7,37.1-13.55,54.5-14.58ZM1402.7,539.17c10.75-1.02,22.26-5.62,34.54-13.82,12.28-8.18,23.03-20.34,32.24-36.46s15.99-36.08,20.34-59.87c4.34-23.79,3.96-51.81-1.15-84.05-5.12-32.24-12.8-58.34-23.03-78.29-10.24-19.96-21.37-35.43-33.39-46.44-12.03-11-24.18-18.16-36.46-21.49-12.28-3.32-23.03-4.73-32.24-4.22-14.85,1.03-27.38,6.02-37.61,14.97-10.24,8.96-18.81,20.47-25.71,34.54-6.91,14.08-12.03,30.07-15.35,47.97-3.33,17.92-5.25,36.59-5.76,56.03-1.03,24.56.77,49.12,5.37,73.69s12.53,46.57,23.79,66.01c10.75,18.94,24.3,32.75,40.68,41.45,16.37,8.71,34.28,12.03,53.73,9.98Z"/><path class="cls-2" d="M1534.72,271.29c-15.35,0-28.02-2.94-38-8.83-9.98-5.88-17.77-12.92-23.41-21.11-5.62-8.18-9.71-16.89-12.28-26.1-2.55-9.21-3.84-17.14-3.84-23.79-.5-18.42,4.48-38.5,14.97-60.25,10.49-21.74,27.77-42.22,51.81-61.41,24.06-19.19,55.38-35.18,94.03-47.97,38.63-12.79,85.84-19.19,141.62-19.19,14.32,0,32.74,2.05,55.27,6.14,22.51,4.1,44.52,11.51,66.01,22.26s39.91,25.71,55.27,44.9,22.76,43.63,22.26,73.3c0,19.96-3.33,38-9.98,54.11-6.66,16.12-15.48,30.32-26.48,42.6-11.01,12.28-24.18,22.39-39.53,30.32-15.35,7.94-31.73,13.7-49.12,17.27,16.89,1.54,34.28,5.5,52.2,11.9,17.91,6.4,34.41,15.48,49.51,27.25,15.09,11.78,27.5,26.1,37.23,42.98,9.71,16.89,14.84,36.84,15.35,59.87.5,32.24-7.04,62.05-22.64,89.42-15.62,27.38-39.41,49.26-71.38,65.63-31.99,16.37-71.9,26.35-119.74,29.94-47.85,3.57-104.01-2.3-168.48-17.65,5.11-9.21,9.59-17.91,13.43-26.1,3.84-8.18,7.03-16.75,9.6-25.71,2.55-8.95,4.72-18.54,6.52-28.78,1.79-10.23,3.46-21.74,4.99-34.54,1.02-8.7,2.42-20.98,4.22-36.84,1.79-15.86,3.71-34.03,5.76-54.5,2.04-20.46,4.09-42.72,6.14-66.78,2.04-24.05,3.71-48.48,4.99-73.3,1.27-24.81,2.04-49.51,2.3-74.07.25-24.56-.13-47.84-1.15-69.85-1.03-16.89-1.8-30.82-2.3-41.83-.52-11-1.28-20.08-2.3-27.25-28.15,4.1-53.1,11.39-74.84,21.88-21.74,10.49-40.03,23.03-54.88,37.61-14.84,14.58-25.97,30.7-33.39,48.36-7.41,17.65-10.36,35.69-8.83,54.11,1.54,17.92,9.34,31.09,23.41,39.53,14.08,8.44,30.32,11.39,48.74,8.83,9.21-1.54,17.14-4.99,23.79-10.36,6.64-5.37,12.02-11.63,16.12-18.81,4.09-7.16,6.78-15.09,8.06-23.79,1.27-8.7,1.15-17.14-.38-25.33-1.54-8.18-4.61-14.32-9.21-18.42-4.61-4.09-9.73-6.78-15.35-8.06-5.64-1.27-11.39-1.4-17.27-.38-5.88,1.03-10.87,2.82-14.97,5.37-3.07,2.05-5.88,4.99-8.44,8.83-2.55,3.84-4.34,8.06-5.37,12.67-1.02,4.61-.77,9.34.77,14.2,1.54,4.87,5.12,8.83,10.75,11.9.52-6.14,2.82-11.38,6.91-15.74,4.1-4.34,9.21-5.49,15.35-3.45,3.57,1.54,6.14,4.22,7.68,8.06s1.79,7.94.77,12.28c-1.03,4.35-3.33,8.32-6.91,11.9-3.57,3.59-8.7,5.64-15.35,6.14-4.61.52-9.46,0-14.58-1.54-5.11-1.54-9.85-4.09-14.2-7.68-4.34-3.57-7.93-8.31-10.75-14.2-2.81-5.88-3.96-13.17-3.45-21.88.52-7.68,2.82-14.58,6.91-20.72,4.1-6.14,9.21-11.25,15.35-15.35,6.14-4.09,13.05-7.16,20.72-9.21,7.68-2.04,15.35-2.81,23.03-2.3,33.77,1.54,50.91,22.01,51.43,61.41,0,9.73-1.92,19.45-5.76,29.17-3.84,9.73-9.86,18.55-18.04,26.48-8.19,7.94-18.17,14.33-29.94,19.19-11.77,4.87-25.33,7.29-40.68,7.29ZM1703.59,334.23c.5,15.87.5,33.52,0,52.96-.52,19.45-1.42,39.41-2.69,59.87-1.28,20.47-2.69,41.07-4.22,61.79s-3.07,40.3-4.61,58.72c20.46,7.17,43.24,9.98,68.31,8.44,25.07-1.54,48.48-7.54,70.23-18.04,21.74-10.48,39.78-25.71,54.12-45.67,14.32-19.96,20.98-45.02,19.96-75.22-1.03-19.96-5.12-36.58-12.28-49.89-7.17-13.3-16.5-24.18-28.02-32.62s-24.31-14.7-38.38-18.81c-14.08-4.09-28.53-6.64-43.37-7.68-14.85-1.02-29.17-.89-42.98.38-13.82,1.28-25.85,3.2-36.08,5.76ZM1724.32,38.71c-1.03,16.38-2.95,34.67-5.76,54.88-2.82,20.22-5.5,41.58-8.06,64.09-2.57,22.52-4.74,45.67-6.53,69.47-1.8,23.79-2.18,47.47-1.15,71,22.51,3.07,44.9.26,67.16-8.44,22.26-8.7,42.34-21.23,60.26-37.61,17.91-16.37,32.36-35.43,43.37-57.18,11-21.74,16.5-44.14,16.5-67.16,0-17.91-5.64-33.51-16.89-46.82-11.26-13.3-25.33-23.79-42.22-31.47s-34.93-12.53-54.12-14.58c-19.19-2.04-36.72-.77-52.58,3.84Z"/><path class="cls-2" d="M2192.54,165.36c21.49-.5,42.72,3.84,63.71,13.05,20.98,9.21,39.91,23.03,56.8,41.45s30.57,40.81,41.06,67.16c10.48,26.36,15.74,56.42,15.74,90.19s-4.22,63.59-12.67,89.42c-8.44,25.85-19.71,47.72-33.77,65.63-14.08,17.92-30.2,31.6-48.36,41.07-18.17,9.47-37.23,14.97-57.18,16.5-22.52,1.54-44.52-2.17-66.01-11.13-21.49-8.95-40.81-22.51-57.95-40.68-17.15-18.16-31.09-40.68-41.83-67.55s-16.38-57.69-16.89-92.49c-1.03-35.81,3.45-66.9,13.43-93.26,9.98-26.35,22.64-48.23,38-65.63,15.35-17.39,32.49-30.44,51.43-39.15,18.93-8.7,37.1-13.55,54.5-14.58ZM2224.78,539.17c10.75-1.02,22.26-5.62,34.54-13.82,12.28-8.18,23.03-20.34,32.24-36.46s15.99-36.08,20.34-59.87c4.34-23.79,3.96-51.81-1.15-84.05-5.12-32.24-12.8-58.34-23.03-78.29-10.24-19.96-21.37-35.43-33.39-46.44-12.03-11-24.18-18.16-36.46-21.49-12.28-3.32-23.03-4.73-32.24-4.22-14.85,1.03-27.38,6.02-37.61,14.97-10.24,8.96-18.81,20.47-25.71,34.54-6.91,14.08-12.03,30.07-15.35,47.97-3.33,17.92-5.25,36.59-5.76,56.03-1.03,24.56.77,49.12,5.37,73.69s12.53,46.57,23.79,66.01c10.75,18.94,24.3,32.75,40.68,41.45,16.37,8.71,34.28,12.03,53.73,9.98Z"/><path class="cls-2" d="M2395.95,575.25c7.16-7.68,13.82-17.27,19.96-28.78s11.38-25.71,15.73-42.6c4.34-16.89,7.29-37.35,8.83-61.41,1.54-24.05,2.81-51.04,3.84-80.98,1.02-29.94,1.65-60.51,1.92-91.73.25-31.21-.13-61.53-1.15-90.96-1.03-29.42-2.82-55.39-5.37-77.91-2.05-15.86-5.64-28.4-10.75-37.61-5.12-9.21-10.75-16.5-16.89-21.88s-12.54-9.46-19.19-12.28c-6.64-2.81-12.28-5.76-16.89-8.83l5.37-17.65c10.75,4.1,23.66,7.17,38.76,9.21,15.09,2.05,30.96,3.33,47.59,3.84,16.62.52,33.64,0,51.04-1.54,17.39-1.54,34.03-4.09,49.89-7.68l4.61,16.12c-10.24,3.07-19.57,9.59-28.02,19.57s-14.2,27.25-17.27,51.81c-1.03,7.68-2.3,18.04-3.84,31.09s-3.07,27.9-4.61,44.52c-1.54,16.63-3.07,34.8-4.61,54.5-1.54,19.71-3.07,39.79-4.61,60.25,20.98-1.54,42.22-7.54,63.71-18.04,21.49-10.48,41.32-24.56,59.49-42.22,18.16-17.65,33.77-38.76,46.82-63.33s21.88-51.68,26.48-81.36c1.54-12.28,1.65-21.88.38-28.78-1.28-6.91-3.33-12.15-6.14-15.74-2.82-3.57-5.89-5.76-9.21-6.52-3.33-.77-6.27-1.15-8.83-1.15l1.54-16.89c6.14,1.03,16.5,2.05,31.09,3.07,14.58,1.03,31.34,1.67,50.28,1.92,18.93.26,39.15-.25,60.64-1.54,21.49-1.27,42.47-3.96,62.94-8.06l.77,15.35c-10.75,3.07-20.99,6.14-30.7,9.21-9.73,3.07-18.94,7.17-27.63,12.28-8.71,5.12-17.02,11.78-24.95,19.96-7.94,8.19-15.48,18.94-22.64,32.24-9.21,16.38-19.84,34.67-31.86,54.88-12.03,20.22-25.85,40.05-41.45,59.49-15.62,19.45-32.88,37.23-51.81,53.35-18.94,16.12-39.91,28.28-62.94,36.46,15.35,6.66,31.85,15.48,49.51,26.48,17.65,11.01,34.03,24.69,49.12,41.07,15.09,16.38,27.63,35.69,37.61,57.95s14.97,47.72,14.97,76.37c0,21.49-.38,43.63-1.15,66.4-.77,22.78-.52,44.9.77,66.4,1.27,21.49,3.84,41.83,7.68,61.02s10.1,35.81,18.81,49.89c8.7,14.07,20.59,25.33,35.69,33.77,15.09,8.44,34.16,12.67,57.19,12.67,10.75,0,20.72-2.43,29.94-7.29,9.21-4.87,17.27-11.26,24.18-19.19,6.91-7.94,12.4-16.63,16.5-26.1,4.09-9.47,6.14-18.81,6.14-28.02s-1.54-17.92-4.61-26.1c-3.07-8.19-7.17-15.23-12.28-21.11-5.12-5.89-10.88-10.49-17.27-13.82-6.4-3.33-12.93-4.99-19.57-4.99-13.31,0-25.21,4.86-35.69,14.58-10.49,9.71-15.73,20.46-15.73,32.24s2.55,22.13,7.68,29.55c5.11,7.41,13.05,11.13,23.79,11.13,8.7,0,15.99-3.2,21.88-9.59,5.88-6.4,9.33-13.95,10.36-22.64-4.61,7.16-10.75,10.75-18.42,10.75-6.66-.52-12.28-2.95-16.89-7.29-4.61-4.35-6.4-9.09-5.37-14.2,1.02-5.64,4.09-10.36,9.21-14.2,5.11-3.84,12.02-4.99,20.72-3.45,9.21,1.54,16.12,6.01,20.72,13.43,4.61,7.41,5.88,15.99,3.84,25.71-1.03,4.61-2.69,9.46-4.99,14.58-2.3,5.11-5.64,9.59-9.98,13.43-4.35,3.84-9.86,6.91-16.5,9.21-6.66,2.3-14.58,2.94-23.79,1.92-11.26-1.03-20.22-4.74-26.87-11.13-6.66-6.4-11.13-14.2-13.43-23.41s-2.43-19.07-.38-29.55c2.04-10.49,6.26-20.22,12.66-29.17,6.39-8.96,14.71-16.25,24.95-21.88,10.23-5.64,22.26-8.19,36.08-7.68,8.18,0,16.24,2.42,24.18,7.29,7.93,4.86,15.09,11.13,21.49,18.81,6.39,7.68,11.38,16.75,14.97,27.25,3.57,10.48,5.37,21.61,5.37,33.39,0,10.75-1.92,22.51-5.76,35.31-3.84,12.79-10.49,24.68-19.96,35.69-9.47,11-22.14,20.21-37.99,27.63-15.87,7.41-35.57,10.87-59.1,10.36-18.42,0-37.11-5.25-56.03-15.74-18.94-10.49-35.96-25.59-51.04-45.29-15.1-19.71-27.25-44.02-36.46-72.92-9.21-28.92-13.31-62.31-12.28-100.17.5-23.03.77-46.94.77-71.77s-2.82-47.46-8.44-67.93c-7.17-21.49-16.77-42.34-28.79-62.56-12.03-20.21-28.28-36.2-48.74-47.97-11.78-7.16-24.95-11.38-39.53-12.67-14.58-1.27-30.32-1.4-47.21-.38-1.54,35.31-2.3,68.19-2.3,98.63v70.23c0,17.4,2.04,31.09,6.14,41.07,4.09,9.98,9.33,18.04,15.73,24.18,6.39,6.14,13.43,10.88,21.11,14.2,7.68,3.33,15.09,7.04,22.26,11.13l-6.14,13.05c-9.21-1.54-22.14-2.3-38.76-2.3s-34.29.64-52.96,1.92c-18.69,1.27-36.97,3.07-54.88,5.37-17.92,2.3-32.24,5.24-42.98,8.83l-2.3-16.12c7.68-5.62,15.1-12.28,22.26-19.96Z"/><path class="cls-2" d="M2995.43,165.36c21.49-.5,42.72,3.84,63.71,13.05,20.98,9.21,39.91,23.03,56.8,41.45s30.57,40.81,41.06,67.16c10.48,26.36,15.74,56.42,15.74,90.19s-4.22,63.59-12.67,89.42c-8.44,25.85-19.71,47.72-33.77,65.63-14.08,17.92-30.2,31.6-48.36,41.07-18.17,9.47-37.23,14.97-57.18,16.5-22.52,1.54-44.52-2.17-66.01-11.13-21.49-8.95-40.81-22.51-57.95-40.68-17.15-18.16-31.09-40.68-41.83-67.55s-16.38-57.69-16.89-92.49c-1.03-35.81,3.45-66.9,13.43-93.26,9.98-26.35,22.64-48.23,38-65.63,15.35-17.39,32.49-30.44,51.43-39.15,18.93-8.7,37.1-13.55,54.5-14.58ZM3027.66,539.17c10.75-1.02,22.26-5.62,34.54-13.82,12.28-8.18,23.03-20.34,32.24-36.46s15.99-36.08,20.34-59.87c4.34-23.79,3.96-51.81-1.15-84.05-5.12-32.24-12.8-58.34-23.03-78.29-10.24-19.96-21.37-35.43-33.39-46.44-12.03-11-24.18-18.16-36.46-21.49-12.28-3.32-23.03-4.73-32.24-4.22-14.85,1.03-27.38,6.02-37.61,14.97-10.24,8.96-18.81,20.47-25.71,34.54-6.91,14.08-12.03,30.07-15.35,47.97-3.33,17.92-5.25,36.59-5.76,56.03-1.03,24.56.77,49.12,5.37,73.69s12.53,46.57,23.79,66.01c10.75,18.94,24.3,32.75,40.68,41.45,16.37,8.71,34.28,12.03,53.73,9.98Z"/><path class="cls-2" d="M3212.27,582.92c7.93-5.11,14.58-11.63,19.96-19.57,5.37-7.93,9.46-18.16,12.28-30.7,2.81-12.53,4.73-29.29,5.76-50.28.5-20.98,2.04-46.56,4.61-76.76,2.55-30.19,4.86-61.41,6.91-93.64,2.04-32.24,3.57-63.71,4.61-94.41,1.02-30.7.5-57.05-1.54-79.06-2.05-22-5.37-39.91-9.98-53.73s-9.73-25.07-15.35-33.77c-5.64-8.7-11.78-15.47-18.42-20.34-6.66-4.86-13.05-8.83-19.19-11.9l5.37-12.28c10.75,3.07,23.66,5.76,38.76,8.06,15.09,2.3,31.09,3.97,47.97,4.99,16.89,1.03,34.16,1.28,51.81.77,17.65-.5,34.66-2.04,51.04-4.61l2.3,13.82c-14.85,7.17-27.9,22.39-39.15,45.67-11.26,23.29-19.71,56.42-25.33,99.4-2.57,17.92-4.87,41.71-6.91,71.38-2.05,29.68-3.59,61.67-4.61,95.95-.52,18.94-.65,37.88-.38,56.8.25,18.94.77,37.23,1.54,54.88s1.79,34.29,3.07,49.89c1.27,15.62,2.69,29.55,4.22,41.83,5.11,5.64,12.92,10.11,23.41,13.43,10.48,3.33,27.75,5.25,51.81,5.76,39.91,1.03,70.62-6.78,92.11-23.41,21.49-16.62,35.04-38.76,40.68-66.4,1.54-8.18,3.32-16.89,5.37-26.1,1.54-7.68,3.07-16.24,4.61-25.71,1.54-9.46,3.07-18.81,4.61-28.02l22.26,2.3c-7.17,43.5-10.11,82.51-8.83,117.06,1.27,34.54,4.99,64.61,11.13,90.19-22.52-3.59-50.41-6.66-83.67-9.21-33.27-2.55-67.93-3.84-104.01-3.84s-71.77,1.79-107.08,5.37c-35.31,3.57-66.01,9.71-92.11,18.42l-7.68-15.35c10.75-6.14,20.08-11.77,28.02-16.89Z"/><path class="cls-2" d="M3771.45,165.36c21.49-.5,42.72,3.84,63.71,13.05,20.98,9.21,39.91,23.03,56.8,41.45s30.57,40.81,41.06,67.16c10.48,26.36,15.74,56.42,15.74,90.19s-4.22,63.59-12.67,89.42c-8.44,25.85-19.71,47.72-33.77,65.63-14.08,17.92-30.2,31.6-48.36,41.07-18.17,9.47-37.23,14.97-57.18,16.5-22.52,1.54-44.52-2.17-66.01-11.13-21.49-8.95-40.81-22.51-57.95-40.68-17.15-18.16-31.09-40.68-41.83-67.55s-16.38-57.69-16.89-92.49c-1.03-35.81,3.45-66.9,13.43-93.26,9.98-26.35,22.64-48.23,38-65.63,15.35-17.39,32.49-30.44,51.43-39.15,18.93-8.7,37.1-13.55,54.5-14.58ZM3803.69,539.17c10.75-1.02,22.26-5.62,34.54-13.82,12.28-8.18,23.03-20.34,32.24-36.46s15.99-36.08,20.34-59.87c4.34-23.79,3.96-51.81-1.15-84.05-5.12-32.24-12.8-58.34-23.03-78.29-10.24-19.96-21.37-35.43-33.39-46.44-12.03-11-24.18-18.16-36.46-21.49-12.28-3.32-23.03-4.73-32.24-4.22-14.85,1.03-27.38,6.02-37.61,14.97-10.24,8.96-18.81,20.47-25.71,34.54-6.91,14.08-12.03,30.07-15.35,47.97-3.33,17.92-5.25,36.59-5.76,56.03-1.03,24.56.77,49.12,5.37,73.69s12.53,46.57,23.79,66.01c10.75,18.94,24.3,32.75,40.68,41.45,16.37,8.71,34.28,12.03,53.73,9.98Z"/><path class="cls-1" d="M4127.81,506.82c28.26-.67,76.97,7.82,97.52-17.49,9.73-11.98,7.78-29.3,7.35-43.66-.54-18.03-2.17-36-3.34-54-2.09-32.2-6.42-72.83,13.79-100.63,9.73-13.38,24.53-21.7,37.76-31.14,13.53-9.65,25.96-20.73,37.54-32.63,23.78-24.45,46.44-52.66,64.17-81.84,9.51-15.66,14.76-25.17-4.87-31.75-14.46-4.85-29.54-9.21-44.89-9.6-33.98-.86-57.79,19.03-78.02,44.2-19.66,24.46-36.98,58.25-63.9,75.61-11.24,7.25-28.19,11.61-32.75-5.1-3.93-14.4,4.67-31.12,10.64-43.79,26.39-55.98,77.03-110.65,138.83-125.53,60.05-14.47,135.09,3.33,185.4,38.09,11.2,7.74,22.92,22.2,31.16,4.05,6.72-14.8,9.7-31.19,16.26-46.12,10.66-24.27,29.01-41.54,56.55-42.29,44.08-1.19,86.74,31.34,91.45,76.08,3.42,32.39-10.59,63.72-27.74,90.33-10.53,16.33-43.41,64.77-66.64,42.22-11.82-11.48-12.16-30.67-22.22-43.24-3.29-4.12-12.04-12.36-17.22-6.1-2.54,3.07.24,14.44.31,18.21.72,36.83-17.67,63.63-31.62,95.95-6.19,14.35-13.01,31.63-11.17,47.53,1.94,16.74,13.96,26.12,27.65,34.12,28.4,16.6,65.46,20.75,90.92,41.75,10.89,8.98,17.55,22.9,2.09,31.18-13.7,7.33-31.2,4.24-45.85,2.17-33.74-4.76-66.2-16.59-95.32-34.22-26.14-15.83-46.9-36.43-45.96-68.98.53-18.63,6.97-35.94,14.48-52.74,3.44-7.71,19.85-34.45,15.28-41.81-10.89-17.55-66.46,42.28-73.74,50.19-22.79,24.76-46.36,50.14-60.81,80.9-15.97,34-19.3,74.37-25.73,111.02-4.99,28.43-8.4,59.42-31.14,79.95-14.25,12.86-33.16,18.87-50.18,26.98-7.5,3.57-21.13,8.1-21.28,18.16-.17,11.86,14.56,25.85,19.36,36.19,6.83,14.72,10.66,30.75,10.55,47.02-.36,56.61-34.63,105.5-87.08,125.87-59.46,23.09-125.19-.2-159.77-53.07-17.43-26.65-24.31-57.95-19.42-89.43,2.89-18.63,9.72-35.47,18.56-52.02,6.96-13.01,18.12-26.78,17.05-42.31-1.27-18.52-20.41-27.92-24.49-45.05-3.57-14.98,13.22-18.95,24.71-21.02,37.43-6.74,77.93-2.88,115.75-2.2h.02ZM4168.22,737.18c46.84-56.74-5.92-142.06-77.53-126.22-35.37,7.82-58.7,38.82-60.76,74.33-4.21,72.6,93.43,106.22,138.29,51.89Z"/></svg>