<?xml version="1.0" encoding="UTF-8"?>
<svg id="Vrstva_1" data-name="Vrstva 1" xmlns="http://www.w3.org/2000/svg" viewBox="0 0 45.18 51.85">
  <defs>
    <style>
      .cls-1 {
        fill: #fff;
      }

      .cls-2 {
        fill: #1e1e1c;
      }
    </style>
  </defs>
  <path class="cls-2" d="M2.9,41.81c0-3.09.94-5.53,2.82-7.31,1.88-1.78,4.46-2.67,7.75-2.67s5.87.89,7.74,2.67c1.87,1.78,2.81,4.22,2.81,7.31s-.94,5.57-2.82,7.36c-1.88,1.79-4.46,2.68-7.73,2.68s-5.86-.89-7.74-2.68c-1.89-1.79-2.83-4.24-2.83-7.36"/>
  <line class="cls-2" x1="28.62" y1="25.47" x2="27.34" y2="18.16"/>
  <path class="cls-2" d="M30.48,24.96c-.04-.24-.08-.48-.13-.73-.1-.58-.2-1.16-.3-1.74-.12-.7-.24-1.41-.37-2.11-.11-.61-.21-1.22-.32-1.83-.05-.3-.1-.59-.15-.89,0,0,0,0,0-.01-.06-.25-.18-.47-.35-.66-.14-.21-.32-.38-.54-.5-.22-.14-.46-.22-.72-.23-.26-.06-.51-.05-.77.03-.15.07-.31.13-.46.19-.29.17-.52.4-.69.69l-.2.46c-.09.34-.09.68,0,1.03.04.24.08.48.13.73.1.58.2,1.16.3,1.75l.37,2.11c.11.61.21,1.22.32,1.83.05.3.1.59.15.89,0,0,0,0,0,.01.06.25.17.47.35.66.14.21.32.38.54.5.22.14.46.22.72.23.26.06.51.05.77-.03.15-.07.31-.13.46-.2.29-.17.52-.4.69-.69.07-.15.13-.31.2-.46.09-.34.09-.68,0-1.03"/>
  <line class="cls-2" x1="43.24" y1="24.27" x2="28.62" y2="25.47"/>
  <path class="cls-2" d="M43.24,22.34c-.49.04-.97.08-1.46.12l-3.49.29c-1.41.11-2.81.23-4.22.35-1.22.1-2.44.2-3.66.3-.59.05-1.18.09-1.77.15,0,0-.02,0-.02,0-.52.04-.99.19-1.36.57-.34.34-.59.89-.57,1.37.02.5.19,1.02.57,1.37.36.33.86.61,1.36.57.49-.04.98-.08,1.46-.12l3.49-.29,4.22-.35c1.22-.1,2.44-.2,3.66-.3.59-.05,1.18-.09,1.77-.15,0,0,.02,0,.03,0,.52-.04.99-.19,1.37-.57.33-.34.59-.88.57-1.37-.02-.5-.19-1.02-.57-1.37-.36-.33-.86-.61-1.37-.57"/>
  <path class="cls-2" d="M27.28,8c-.49.25-.97.49-1.46.74l-3.49,1.77c-1.4.71-2.8,1.42-4.21,2.14-1.22.62-2.43,1.23-3.65,1.85-.59.3-1.19.59-1.77.9,0,0-.02,0-.02.01-.48.24-.88.82-1.02,1.33-.15.53-.08,1.24.22,1.72.31.48.76.89,1.33,1.02.2.03.39.05.59.08.4,0,.78-.1,1.12-.3.48-.25.97-.49,1.45-.74,1.16-.59,2.33-1.18,3.49-1.77l4.21-2.14c1.22-.62,2.43-1.23,3.65-1.85.59-.3,1.19-.59,1.77-.9,0,0,.02,0,.03-.01.48-.25.88-.82,1.02-1.33.15-.53.08-1.24-.23-1.72-.31-.48-.76-.9-1.33-1.03-.2-.03-.39-.05-.59-.08-.4,0-.78.1-1.12.3"/>
  <path class="cls-2" d="M11.65,17.93c.14.54.27,1.08.41,1.61.32,1.29.65,2.57.97,3.86.39,1.56.79,3.12,1.18,4.68.34,1.35.68,2.69,1.02,4.03.17.66.32,1.32.5,1.97,0,.01,0,.02,0,.03.14.54.55,1.05,1.03,1.33.48.28,1.18.4,1.72.22.54-.17,1.06-.51,1.33-1.02.28-.54.38-1.12.22-1.72-.13-.54-.27-1.07-.41-1.61l-.98-3.85c-.39-1.56-.79-3.12-1.18-4.68-.34-1.34-.68-2.69-1.02-4.03-.17-.66-.32-1.32-.5-1.97,0,0,0-.02,0-.03-.13-.54-.55-1.05-1.02-1.33-.48-.28-1.18-.4-1.72-.22-.54.17-1.06.51-1.33,1.02-.28.54-.38,1.12-.22,1.72"/>
  <path class="cls-2" d="M31.7,5.9c0-3.19,2.58-5.77,5.77-5.77s5.77,2.58,5.77,5.77-2.59,5.77-5.77,5.77-5.77-2.58-5.77-5.77"/>
  <path class="cls-2" d="M37.48,11.79c-3.25,0-5.9-2.65-5.9-5.9s2.64-5.9,5.9-5.9,5.9,2.65,5.9,5.9-2.64,5.9-5.9,5.9M37.48.25c-3.12,0-5.65,2.53-5.65,5.65s2.53,5.65,5.65,5.65,5.65-2.53,5.65-5.65S40.59.25,37.48.25"/>
  <path class="cls-2" d="M16.61,4.8c-.5.18-1.01.35-1.51.53-1.21.43-2.43.85-3.64,1.28-1.46.51-2.92,1.03-4.38,1.54-1.26.44-2.53.89-3.79,1.33-.61.22-1.23.43-1.85.65h-.03c-.48.18-.89.45-1.15.9-.24.41-.35,1.02-.2,1.49.15.47.44.92.89,1.15.44.23,1,.37,1.49.2.5-.18,1.01-.35,1.51-.53,1.21-.43,2.43-.85,3.64-1.28,1.46-.51,2.92-1.03,4.38-1.54,1.26-.44,2.53-.89,3.79-1.33.61-.22,1.23-.43,1.85-.65,0,0,.02,0,.03,0,.48-.17.89-.44,1.15-.89.24-.41.34-1.02.19-1.49-.15-.47-.44-.92-.89-1.15-.44-.23-1-.37-1.49-.2"/>
  <path class="cls-1" d="M15.71,32.77c-.2.36-.39.72-.59,1.09-.47.87-.94,1.74-1.41,2.61-.57,1.05-1.13,2.09-1.7,3.14-.49.9-.98,1.81-1.47,2.71-.24.44-.48.88-.72,1.33,0,0,0,.01-.01.02-.19.35-.26.76-.15,1.15.1.34.36.72.68.89.34.18.76.27,1.14.15.36-.12.7-.34.89-.68.2-.36.39-.72.59-1.08.47-.87.94-1.74,1.41-2.61.57-1.05,1.13-2.09,1.7-3.14.49-.9.98-1.81,1.47-2.71.24-.44.48-.88.72-1.33,0,0,0-.01,0-.02.19-.35.26-.76.15-1.14-.1-.35-.36-.72-.68-.89-.35-.18-.76-.27-1.15-.15-.36.12-.7.34-.89.68"/>
</svg>