<?xml version="1.0" encoding="UTF-8"?>
<svg id="Vrstva_1" data-name="Vrstva 1" xmlns="http://www.w3.org/2000/svg" viewBox="0 0 45.18 51.72">
  <defs>
    <style>
      .cls-1 {
        fill: #fff;
      }

      .cls-2 {
        fill: #1e1e1c;
      }
    </style>
  </defs>
  <path class="cls-1" d="M2.9,41.69c0-3.09.94-5.53,2.82-7.31,1.88-1.78,4.46-2.67,7.75-2.67s5.87.89,7.74,2.67c1.87,1.78,2.81,4.22,2.81,7.31s-.94,5.57-2.82,7.36c-1.88,1.79-4.46,2.68-7.73,2.68s-5.86-.89-7.74-2.68c-1.89-1.79-2.83-4.24-2.83-7.36"/>
  <path class="cls-1" d="M30.48,24.83c-.04-.24-.08-.48-.13-.73-.1-.58-.2-1.16-.3-1.74-.12-.7-.24-1.41-.37-2.11-.11-.61-.21-1.22-.32-1.83-.05-.3-.1-.59-.15-.89,0,0,0,0,0-.01-.06-.25-.18-.47-.35-.66-.14-.21-.32-.38-.54-.5-.22-.14-.46-.22-.72-.23-.26-.06-.51-.05-.77.04-.15.07-.31.13-.46.19-.29.17-.52.4-.69.69-.07.15-.13.31-.2.46-.09.34-.09.68,0,1.03l.13.73c.1.58.2,1.16.3,1.75.12.7.24,1.41.37,2.11.11.61.21,1.22.32,1.83.05.3.1.6.15.89,0,0,0,0,0,.01.06.25.17.47.35.66.14.21.32.38.54.5.22.14.46.22.72.23.26.06.51.05.77-.04.15-.07.31-.13.46-.19.29-.17.52-.4.69-.69.07-.15.13-.31.2-.46.09-.34.09-.68,0-1.03"/>
  <path class="cls-1" d="M43.24,22.21c-.49.04-.97.08-1.46.12l-3.49.29c-1.41.11-2.81.23-4.22.35-1.22.1-2.44.2-3.66.3-.59.05-1.18.09-1.77.14,0,0-.02,0-.02,0-.52.04-.99.19-1.36.57-.34.33-.59.88-.57,1.37.02.5.19,1.02.57,1.37.36.33.86.61,1.36.57.49-.04.98-.08,1.46-.12,1.16-.09,2.33-.19,3.49-.29,1.41-.12,2.81-.23,4.22-.35,1.22-.1,2.44-.2,3.66-.3.59-.05,1.18-.09,1.77-.15,0,0,.02,0,.03,0,.52-.04.99-.19,1.37-.57.33-.34.59-.88.57-1.37-.02-.5-.19-1.02-.57-1.37-.36-.33-.86-.61-1.37-.57"/>
  <path class="cls-1" d="M27.28,7.87c-.49.25-.97.49-1.46.74l-3.49,1.77c-1.4.71-2.8,1.42-4.21,2.14-1.22.62-2.43,1.24-3.65,1.85-.59.3-1.19.59-1.77.9h-.02c-.48.26-.88.84-1.02,1.34-.15.53-.08,1.24.22,1.72.31.48.76.89,1.33,1.02.2.03.39.05.59.08.4,0,.78-.1,1.12-.3.48-.25.97-.49,1.45-.74,1.16-.59,2.33-1.18,3.49-1.77,1.4-.71,2.81-1.42,4.21-2.14,1.22-.62,2.43-1.23,3.65-1.85.59-.3,1.19-.59,1.77-.9,0,0,.02,0,.03-.01.48-.24.88-.82,1.02-1.33.15-.53.08-1.24-.23-1.72-.31-.48-.76-.9-1.33-1.03-.2-.03-.39-.05-.59-.08-.4,0-.78.1-1.12.3"/>
  <path class="cls-1" d="M11.65,17.8c.14.54.27,1.08.41,1.61.32,1.29.65,2.57.97,3.86l1.18,4.68c.34,1.35.68,2.69,1.02,4.03.17.66.32,1.32.5,1.97,0,.01,0,.02,0,.03.14.54.55,1.05,1.03,1.33.48.28,1.18.4,1.72.22.54-.17,1.06-.51,1.33-1.02.28-.54.38-1.12.22-1.72-.13-.54-.27-1.07-.41-1.61-.33-1.29-.65-2.57-.98-3.86-.39-1.56-.79-3.12-1.18-4.68-.34-1.34-.68-2.69-1.02-4.03-.17-.66-.32-1.32-.5-1.97,0,0,0-.02,0-.03-.13-.54-.55-1.05-1.02-1.33-.48-.28-1.18-.4-1.72-.22-.54.17-1.06.51-1.33,1.02-.28.54-.38,1.12-.22,1.72"/>
  <path class="cls-1" d="M31.7,5.77c0-3.19,2.58-5.77,5.77-5.77s5.77,2.58,5.77,5.77-2.59,5.77-5.77,5.77-5.77-2.58-5.77-5.77"/>
  <path class="cls-1" d="M16.61,4.68c-.5.18-1.01.35-1.51.53-1.21.43-2.43.85-3.64,1.28-1.46.51-2.92,1.03-4.38,1.54-1.26.44-2.53.89-3.79,1.33-.61.22-1.23.43-1.85.65h-.03c-.48.18-.89.45-1.15.9-.24.41-.35,1.02-.2,1.49.15.47.44.92.89,1.15.44.23,1,.37,1.49.2.5-.18,1.01-.35,1.51-.53,1.21-.43,2.43-.85,3.64-1.28,1.46-.51,2.92-1.03,4.38-1.54,1.26-.44,2.53-.89,3.79-1.33.61-.22,1.23-.43,1.85-.65,0,0,.02,0,.03,0,.48-.17.89-.44,1.15-.89.24-.41.34-1.02.19-1.49-.15-.47-.44-.92-.89-1.15-.44-.23-1-.37-1.49-.2"/>
  <path class="cls-2" d="M15.02,32.24c-.2.36-.39.72-.59,1.09-.47.87-.94,1.74-1.41,2.61-.57,1.05-1.13,2.09-1.7,3.14-.49.9-.98,1.81-1.47,2.71-.24.44-.48.88-.72,1.33,0,0,0,.01-.01.02-.29.53-.39,1.17-.23,1.76.07.3.21.56.41.78.16.25.38.45.64.59.53.28,1.17.42,1.76.23.56-.18,1.08-.52,1.37-1.05.2-.36.39-.72.59-1.08.47-.87.94-1.74,1.41-2.61.57-1.05,1.13-2.09,1.7-3.14.49-.9.98-1.81,1.47-2.71.24-.44.48-.88.72-1.33,0,0,0-.01.01-.02.29-.53.39-1.17.23-1.76-.07-.3-.21-.56-.41-.78-.16-.25-.38-.45-.64-.59-.53-.28-1.17-.42-1.76-.23-.56.18-1.08.52-1.37,1.05"/>
</svg>