<?xml version="1.0" encoding="UTF-8"?>
<svg id="Vrstva_1" data-name="Vrstva 1" xmlns="http://www.w3.org/2000/svg" viewBox="0 0 201.63 51.72">
  <defs>
    <style>
      .cls-1 {
        fill: #fff;
      }

      .cls-2 {
        fill: #1e1e1c;
      }
    </style>
  </defs>
  <path class="cls-1" d="M0,51.03l3.81-25.65h11.87c3.31,0,5.73.55,7.26,1.66,1.53,1.11,2.3,2.85,2.3,5.23,0,1.71-.41,3.17-1.24,4.4-.83,1.23-2.05,2.19-3.65,2.87,1.14.44,1.95,1.01,2.44,1.7.49.69.73,1.61.73,2.76,0,.24,0,.5-.03.77-.02.27-.04.56-.08.86l-.28,2.6c-.04.24-.06.42-.06.53,0,.11,0,.22,0,.32,0,.34.06.61.19.81.13.2.32.36.59.46v.66h-8.65c-.05-.16-.08-.34-.1-.53-.02-.19-.03-.4-.03-.62,0-.15,0-.34.03-.57.02-.23.04-.51.08-.84l.36-2.58c.02-.15.04-.31.05-.47.01-.16.02-.38.02-.66,0-1.09-.31-1.86-.93-2.3-.62-.44-1.71-.66-3.28-.66h-2.11l-1.39,9.23H0ZM10.08,36.33h3.9c1.23,0,2.14-.21,2.72-.64.58-.42.87-1.09.87-1.99,0-.78-.26-1.34-.77-1.69-.51-.35-1.35-.52-2.51-.52h-3.47l-.75,4.84Z"/>
  <path class="cls-1" d="M26.36,42.51c0-3.38,1.03-6.08,3.09-8.1,2.06-2.02,4.82-3.03,8.28-3.03,3.11,0,5.57.82,7.38,2.46,1.81,1.64,2.72,3.86,2.72,6.67,0,3.49-1,6.23-3,8.22-2,1.98-4.76,2.98-8.28,2.98-3.13,0-5.61-.83-7.44-2.48-1.83-1.65-2.74-3.89-2.74-6.71M37.56,36.51c-1.18,0-2.1.55-2.74,1.65-.64,1.1-.97,2.64-.97,4.64,0,1.24.23,2.16.69,2.77.46.6,1.17.9,2.13.9,1.11,0,2-.55,2.66-1.65.66-1.1.99-2.58.99-4.44,0-1.29-.23-2.25-.69-2.9-.46-.64-1.15-.97-2.08-.97"/>
  <path class="cls-1" d="M49.54,51.03l3.74-25.65h7.28l-1.39,8.46c.66-.79,1.41-1.38,2.25-1.77.84-.39,1.79-.58,2.85-.58,2.24,0,4.01.75,5.32,2.25,1.31,1.5,1.96,3.55,1.96,6.15,0,3.52-.83,6.35-2.49,8.51-1.66,2.15-3.82,3.23-6.5,3.23-1.44,0-2.68-.28-3.73-.84-1.05-.56-1.85-1.36-2.4-2.42l-.4,2.65h-6.49ZM61.74,37.01c-1.07,0-1.94.5-2.62,1.49-.68.99-1.02,2.28-1.02,3.86,0,1.12.25,1.99.75,2.62.5.63,1.19.95,2.07.95,1.04,0,1.91-.51,2.6-1.52.69-1.02,1.04-2.31,1.04-3.89,0-1.14-.24-2.01-.73-2.6-.49-.6-1.18-.9-2.09-.9"/>
  <path class="cls-1" d="M73.86,42.51c0-3.38,1.03-6.08,3.09-8.1,2.06-2.02,4.82-3.03,8.28-3.03,3.11,0,5.57.82,7.38,2.46,1.81,1.64,2.72,3.86,2.72,6.67,0,3.49-1,6.23-3,8.22-2,1.98-4.76,2.98-8.28,2.98-3.13,0-5.61-.83-7.44-2.48-1.83-1.65-2.74-3.89-2.74-6.71M85.06,36.51c-1.18,0-2.1.55-2.74,1.65-.65,1.1-.97,2.64-.97,4.64,0,1.24.23,2.16.69,2.77.46.6,1.17.9,2.13.9,1.11,0,2-.55,2.66-1.65.66-1.1.99-2.58.99-4.44,0-1.29-.23-2.25-.69-2.9-.46-.64-1.15-.97-2.08-.97"/>
  <polygon class="cls-1" points="97.37 51.03 101.28 25.38 109.31 25.38 108.02 33.77 116.26 25.38 125.89 25.38 114.93 35.91 122.58 51.03 113.73 51.03 109.14 41.4 106.42 44.01 105.39 51.03 97.37 51.03"/>
  <path class="cls-1" d="M123.6,42.51c0-3.38,1.03-6.08,3.09-8.1,2.06-2.02,4.82-3.03,8.28-3.03,3.11,0,5.57.82,7.38,2.46,1.81,1.64,2.72,3.86,2.72,6.67,0,3.49-1,6.23-3,8.22-2,1.98-4.76,2.98-8.28,2.98-3.13,0-5.61-.83-7.44-2.48-1.83-1.65-2.74-3.89-2.74-6.71M134.8,36.51c-1.18,0-2.1.55-2.74,1.65-.65,1.1-.97,2.64-.97,4.64,0,1.24.23,2.16.69,2.77.46.6,1.17.9,2.13.9,1.11,0,2-.55,2.66-1.65.66-1.1.99-2.58.99-4.44,0-1.29-.23-2.25-.69-2.9-.46-.64-1.15-.97-2.08-.97"/>
  <polygon class="cls-1" points="146.74 51.03 150.24 25.38 157.52 25.38 154.06 51.03 146.74 51.03"/>
  <path class="cls-1" d="M159.35,41.69c0-3.09.94-5.53,2.82-7.31,1.88-1.78,4.46-2.67,7.75-2.67s5.87.89,7.74,2.67c1.87,1.78,2.81,4.22,2.81,7.31s-.94,5.57-2.82,7.36c-1.88,1.79-4.46,2.68-7.73,2.68s-5.86-.89-7.74-2.68c-1.89-1.79-2.83-4.24-2.83-7.36"/>
  <path class="cls-1" d="M186.93,24.83c-.04-.24-.08-.48-.13-.73-.1-.58-.2-1.16-.3-1.74-.12-.7-.24-1.41-.37-2.11-.11-.61-.21-1.22-.32-1.83-.05-.3-.1-.59-.15-.89,0,0,0,0,0-.01-.06-.25-.18-.47-.35-.66-.14-.21-.32-.38-.54-.5-.22-.14-.46-.22-.72-.23-.26-.06-.51-.05-.77.04-.15.07-.31.13-.46.19-.29.17-.52.4-.69.69-.07.15-.13.31-.2.46-.09.34-.09.68,0,1.03.04.24.08.48.13.73.1.58.2,1.16.3,1.75.12.7.24,1.41.37,2.11.11.61.21,1.22.32,1.83.05.3.1.6.15.89,0,0,0,0,0,.01.06.25.18.47.35.66.14.21.32.38.54.5.22.14.46.22.72.23.26.06.51.05.77-.04.15-.07.31-.13.46-.19.29-.17.52-.4.69-.69.07-.15.13-.31.2-.46.09-.34.09-.68,0-1.03"/>
  <path class="cls-1" d="M199.69,22.21c-.49.04-.97.08-1.46.12-1.16.1-2.33.19-3.49.29-1.41.11-2.81.23-4.22.35-1.22.1-2.44.2-3.66.3-.59.05-1.18.09-1.77.14,0,0-.02,0-.03,0-.52.04-.99.19-1.36.57-.34.33-.59.88-.57,1.37.02.5.19,1.02.57,1.37.36.33.86.61,1.36.57.49-.04.98-.08,1.46-.12l3.49-.29c1.41-.12,2.81-.23,4.22-.35,1.22-.1,2.44-.2,3.66-.3.59-.05,1.18-.09,1.77-.15,0,0,.02,0,.03,0,.52-.04.99-.19,1.37-.57.33-.34.59-.88.57-1.37-.02-.5-.19-1.02-.57-1.37-.36-.33-.86-.61-1.37-.57"/>
  <path class="cls-1" d="M183.73,7.87c-.49.25-.97.49-1.46.74l-3.49,1.77c-1.4.71-2.8,1.42-4.21,2.14-1.22.62-2.43,1.24-3.65,1.85-.59.3-1.19.59-1.77.9,0,0-.02,0-.02.01-.48.24-.88.82-1.02,1.33-.15.53-.08,1.24.22,1.72.31.48.76.89,1.33,1.02.2.03.39.05.59.08.4,0,.78-.1,1.12-.3.48-.25.97-.49,1.45-.74l3.49-1.77c1.4-.71,2.81-1.42,4.21-2.14,1.22-.62,2.43-1.23,3.65-1.85.59-.3,1.19-.59,1.77-.9,0,0,.02,0,.03-.01.48-.25.88-.82,1.02-1.33.15-.53.08-1.24-.22-1.72-.31-.48-.76-.9-1.33-1.03-.2-.03-.4-.05-.59-.08-.4,0-.78.1-1.12.3"/>
  <path class="cls-1" d="M168.1,17.8c.14.54.27,1.08.41,1.61.32,1.29.65,2.57.97,3.86.4,1.56.79,3.12,1.18,4.68.34,1.35.68,2.69,1.02,4.03.17.66.32,1.32.5,1.97,0,.01,0,.02,0,.03.14.54.55,1.05,1.03,1.33.48.28,1.18.4,1.72.22.54-.17,1.06-.51,1.33-1.02.28-.54.38-1.12.23-1.72-.14-.54-.27-1.07-.41-1.61-.32-1.29-.65-2.57-.98-3.86-.39-1.56-.79-3.12-1.18-4.68-.34-1.34-.68-2.69-1.02-4.03-.17-.66-.32-1.32-.5-1.97,0,0,0-.02,0-.03-.13-.54-.55-1.05-1.02-1.33-.48-.28-1.18-.4-1.72-.22-.54.17-1.06.51-1.33,1.02-.28.54-.38,1.12-.22,1.72"/>
  <path class="cls-1" d="M188.15,5.77c0-3.19,2.58-5.77,5.77-5.77s5.77,2.58,5.77,5.77-2.58,5.77-5.77,5.77-5.77-2.58-5.77-5.77"/>
  <path class="cls-1" d="M173.06,4.68c-.5.18-1.01.35-1.51.53l-3.64,1.28c-1.46.51-2.92,1.03-4.38,1.54-1.26.44-2.53.89-3.79,1.33-.61.22-1.23.43-1.84.65h-.03c-.48.18-.89.45-1.15.9-.24.41-.35,1.02-.2,1.49.15.47.44.92.89,1.15.44.23,1,.37,1.49.2.5-.18,1-.35,1.51-.53,1.21-.43,2.43-.85,3.64-1.28,1.46-.51,2.92-1.03,4.38-1.54,1.26-.44,2.53-.89,3.79-1.33.61-.22,1.23-.43,1.85-.65,0,0,.02,0,.03,0,.48-.17.89-.44,1.15-.89.24-.41.34-1.02.19-1.49-.15-.47-.44-.92-.89-1.15-.44-.23-1-.37-1.49-.2"/>
  <path class="cls-2" d="M171.47,32.24l-.59,1.09c-.47.87-.94,1.74-1.41,2.61-.57,1.05-1.13,2.09-1.7,3.14-.49.9-.98,1.81-1.47,2.71-.24.44-.48.88-.72,1.33,0,0,0,.01,0,.02-.29.53-.39,1.17-.23,1.76.07.3.21.56.41.78.16.25.38.45.64.59.53.28,1.17.42,1.76.23.56-.18,1.08-.52,1.37-1.05l.59-1.08c.47-.87.94-1.74,1.41-2.61.57-1.05,1.13-2.09,1.7-3.14.49-.9.98-1.81,1.47-2.71.24-.44.48-.88.72-1.33,0,0,0-.01,0-.02.29-.53.39-1.17.23-1.76-.07-.3-.21-.56-.41-.78-.16-.25-.38-.45-.64-.59-.53-.28-1.17-.42-1.76-.23-.56.18-1.08.52-1.37,1.05"/>
</svg>